<svg xmlns="http://www.w3.org/2000/svg" width="1200" height="800" viewBox="0 0 1200 800" role="img" aria-labelledby="title desc">
  <title id="title">Sen Monorom local guide directory interface preview</title>
  <desc id="desc">A local tourism and business directory interface with category filters, verified listing cards, and map-style details.</desc>
  <rect width="1200" height="800" fill="#eef4f0"/>
  <rect x="82" y="68" width="1036" height="664" rx="30" fill="#ffffff" stroke="#d5e1dc" stroke-width="2"/>
  <rect x="82" y="68" width="1036" height="154" rx="30" fill="#123427"/>
  <rect x="82" y="168" width="1036" height="54" fill="#123427"/>
  <text x="130" y="126" fill="#ffffff" font-family="Segoe UI, Arial, sans-serif" font-size="34" font-weight="800">Sen Monorom Local Guide</text>
  <text x="132" y="170" fill="#cfe5d8" font-family="Segoe UI, Arial, sans-serif" font-size="20" font-weight="600">Verified cafes, stays, tours, rentals, and local services</text>
  <rect x="862" y="106" width="188" height="48" rx="24" fill="#d8a15d"/>
  <text x="896" y="137" fill="#102033" font-family="Segoe UI, Arial, sans-serif" font-size="16" font-weight="800">Submit Business</text>
  <g font-family="Segoe UI, Arial, sans-serif">
    <rect x="130" y="258" width="152" height="48" rx="24" fill="#0e5b62"/>
    <text x="170" y="288" fill="#ffffff" font-size="16" font-weight="800">Cafes</text>
    <rect x="298" y="258" width="174" height="48" rx="24" fill="#f4f7f5" stroke="#d6e2dc"/>
    <text x="336" y="288" fill="#243440" font-size="16" font-weight="800">Restaurants</text>
    <rect x="488" y="258" width="172" height="48" rx="24" fill="#f4f7f5" stroke="#d6e2dc"/>
    <text x="526" y="288" fill="#243440" font-size="16" font-weight="800">Guesthouses</text>
    <rect x="676" y="258" width="132" height="48" rx="24" fill="#f4f7f5" stroke="#d6e2dc"/>
    <text x="719" y="288" fill="#243440" font-size="16" font-weight="800">Tours</text>
    <rect x="824" y="258" width="206" height="48" rx="24" fill="#f4f7f5" stroke="#d6e2dc"/>
    <text x="862" y="288" fill="#243440" font-size="16" font-weight="800">Motorbike rentals</text>
  </g>
  <g font-family="Segoe UI, Arial, sans-serif">
    <rect x="130" y="348" width="292" height="238" rx="20" fill="#f9fbfa" stroke="#d6e2dc"/>
    <rect x="154" y="376" width="244" height="92" rx="16" fill="#dcebdc"/>
    <circle cx="198" cy="422" r="24" fill="#0e5b62"/>
    <text x="238" y="414" fill="#102033" font-size="19" font-weight="800">Hill View Cafe</text>
    <text x="238" y="443" fill="#5f7280" font-size="15" font-weight="700">Cafe • Owner confirmed</text>
    <rect x="154" y="492" width="116" height="36" rx="18" fill="#edf7f7"/>
    <text x="178" y="515" fill="#0e5b62" font-size="14" font-weight="800">Map link</text>
    <rect x="284" y="492" width="114" height="36" rx="18" fill="#fff7ec"/>
    <text x="310" y="515" fill="#c18234" font-size="14" font-weight="800">Contact</text>
    <text x="154" y="555" fill="#243440" font-size="15" font-weight="600">Coffee, breakfast, town center</text>
    <rect x="454" y="348" width="292" height="238" rx="20" fill="#f9fbfa" stroke="#d6e2dc"/>
    <rect x="478" y="376" width="244" height="92" rx="16" fill="#e8eef3"/>
    <circle cx="522" cy="422" r="24" fill="#d8a15d"/>
    <text x="562" y="414" fill="#102033" font-size="19" font-weight="800">Forest Stay</text>
    <text x="562" y="443" fill="#5f7280" font-size="15" font-weight="700">Guesthouse • Verified</text>
    <rect x="478" y="492" width="116" height="36" rx="18" fill="#edf7f7"/>
    <text x="502" y="515" fill="#0e5b62" font-size="14" font-weight="800">Map link</text>
    <rect x="608" y="492" width="114" height="36" rx="18" fill="#fff7ec"/>
    <text x="632" y="515" fill="#c18234" font-size="14" font-weight="800">Website</text>
    <text x="478" y="555" fill="#243440" font-size="15" font-weight="600">Rooms, tours, family-run stay</text>
    <rect x="778" y="348" width="292" height="238" rx="20" fill="#f9fbfa" stroke="#d6e2dc"/>
    <rect x="802" y="376" width="244" height="92" rx="16" fill="#f0eadf"/>
    <circle cx="846" cy="422" r="24" fill="#172a41"/>
    <text x="886" y="414" fill="#102033" font-size="19" font-weight="800">Waterfall Tour</text>
    <text x="886" y="443" fill="#5f7280" font-size="15" font-weight="700">Tour • Owner confirmed</text>
    <rect x="802" y="492" width="116" height="36" rx="18" fill="#edf7f7"/>
    <text x="826" y="515" fill="#0e5b62" font-size="14" font-weight="800">Map link</text>
    <rect x="932" y="492" width="114" height="36" rx="18" fill="#fff7ec"/>
    <text x="956" y="515" fill="#c18234" font-size="14" font-weight="800">Facebook</text>
    <text x="802" y="555" fill="#243440" font-size="15" font-weight="600">Local guide, nature trips</text>
  </g>
  <rect x="130" y="626" width="940" height="52" rx="18" fill="#f4f7f5" stroke="#d6e2dc"/>
  <text x="158" y="660" fill="#102033" font-family="Segoe UI, Arial, sans-serif" font-size="17" font-weight="800">Directory status:</text>
  <text x="306" y="660" fill="#0e5b62" font-family="Segoe UI, Arial, sans-serif" font-size="17" font-weight="800">Owner-confirmed listings, category browsing, and local submission flow</text>
</svg>
